<svg width="796" height="294" xmlns="http://www.w3.org/2000/svg" xmlns:xlink="http://www.w3.org/1999/xlink" overflow="hidden"><defs><clipPath id="clip0"><rect x="122" y="213" width="796" height="294"/></clipPath></defs><g clip-path="url(#clip0)" transform="translate(-122 -213)"><path d="M122 214 335 214 335 318.001 310.531 318.001 310.531 320.086C310.531 333.983 310.531 347.881 310.531 361.779 310.531 364.558 310.298 367.338 309.831 370.117 309.132 377.298 305.171 380.772 297.946 380.54 291.421 380.309 287.46 376.603 286.76 370.117 286.527 366.411 286.527 362.473 286.294 358.536 285.828 354.135 285.828 349.734 284.896 345.333 281.4 328.656 269.515 318.464 252.503 318.001 238.055 317.538 223.839 318.001 209.391 317.769 209.158 317.769 208.691 318.001 208.458 318.001L208.458 398.839 211.022 398.839C221.742 398.839 232.462 398.839 243.182 398.839 247.143 398.839 251.105 398.376 254.834 397.913 259.495 397.449 263.689 396.06 267.884 393.743 261.359 387.489 259.261 379.382 258.562 370.349 255.999 374.286 252.736 376.834 248.775 377.298 243.648 377.993 238.754 377.993 233.627 378.224L233.627 338.616C237.123 338.616 240.152 338.384 243.415 338.616 254.834 339.774 260.427 345.333 261.126 356.914 261.359 362.242 261.126 367.801 261.592 373.36 262.524 385.636 269.282 395.133 282.1 398.607 292.586 401.619 303.073 401.619 313.56 399.071 323.115 396.523 329.873 391.195 333.136 382.162L332.67 386.331C322.882 430.109 280.002 463 228.5 463 176.998 463 134.118 430.109 124.097 386.331L122 367.569 122 367.569 122 366.874 122 284.878 187.951 302.482C191.912 303.408 195.874 301.092 196.806 297.154 197.972 293.448 195.641 289.279 191.679 288.353L122 269.822 122 260.326 187.951 277.698C191.912 278.856 195.874 276.54 196.806 272.602 197.972 268.896 195.641 264.727 191.679 263.8L122 245.27 122 236.005 187.951 253.377C191.912 254.535 195.874 252.219 196.806 248.281 197.972 244.343 195.641 240.406 191.679 239.247L122 220.717 122 214ZM266.486 318.001 286.061 318.001 286.061 339.774C282.333 329.582 276.04 322.17 266.486 318.001Z" fill="#FFFFFF" fill-rule="evenodd"/><path d="M140.618 484.956 138.054 484.956 138.054 500.117 136.189 500.117 136.189 494.912 136.189 494.912C135.956 494.912 135.723 495.139 135.49 495.365 135.024 495.591 134.791 495.591 134.557 495.818 134.091 495.818 133.625 496.044 133.392 496.044 132.926 496.044 132.459 496.27 131.993 496.27 131.061 496.27 130.361 496.044 129.662 495.818 128.963 495.365 128.497 494.912 128.03 494.46 127.564 494.007 127.331 493.328 127.098 492.65 126.865 491.971 126.632 491.292 126.632 490.387 127.098 490.387 127.564 490.387 127.797 490.161 128.264 489.934 128.497 489.708 128.73 489.482 128.963 489.255 129.196 489.029 129.196 488.803 129.429 488.577 129.429 488.35 129.429 487.898L129.429 487.445C129.196 487.219 129.196 486.993 129.196 486.766 128.963 486.314 128.963 486.088 128.73 485.861 128.73 485.635 128.497 485.409 128.264 484.956L125 484.956 125 483.372 140.618 483.372 140.618 484.956ZM130.361 484.956C130.595 485.409 130.828 485.861 131.061 486.54 131.294 486.993 131.294 487.672 131.294 488.124 131.294 488.577 131.294 488.803 131.061 489.255 131.061 489.482 130.828 489.934 130.595 490.161 130.361 490.613 130.128 490.839 129.895 491.066 129.662 491.292 129.196 491.518 128.73 491.745 128.73 492.197 128.963 492.65 129.196 492.876 129.429 493.328 129.662 493.555 130.128 493.781 130.361 494.007 130.595 494.234 131.061 494.234 131.294 494.46 131.76 494.46 132.226 494.46 132.459 494.46 132.926 494.46 133.392 494.234 133.625 494.234 134.091 494.234 134.557 494.007 134.791 493.781 135.024 493.555 135.49 493.328 135.723 493.102 135.956 492.876 136.189 492.65L136.189 484.956 130.361 484.956ZM149.01 484.956 144.348 484.956 144.348 500.117 142.483 500.117 142.483 484.956 140.618 484.956 140.618 483.372 149.01 483.372 149.01 484.956ZM143.882 483.372 142.25 483.372 141.318 481.788C141.084 480.883 140.618 480.204 140.152 479.752 139.919 479.299 139.453 478.847 139.22 478.62 138.753 478.394 138.52 478.168 138.054 478.168 137.821 478.168 137.588 478.168 137.122 478.168L135.024 478.168 135.024 476.358 137.122 476.358C137.355 476.358 137.821 476.358 138.287 476.358 138.52 476.358 138.986 476.584 139.22 476.81 139.686 477.036 139.919 477.263 140.385 477.489 140.618 477.942 140.851 478.168 141.318 478.847 141.551 479.299 142.017 479.978 142.483 480.657 142.949 481.336 143.416 482.241 143.882 483.146L143.882 483.372ZM164.162 484.956 161.831 484.956 161.831 500.117 159.733 500.117 159.733 484.956 154.605 484.956 154.605 493.781 154.605 494.234C154.605 494.234 154.605 494.46 154.372 494.686 154.372 494.686 154.372 494.912 154.139 494.912 154.139 495.139 153.905 495.139 153.672 495.139 153.439 495.139 153.206 495.139 152.973 494.912 152.74 494.912 152.507 494.686 152.274 494.46 152.041 494.234 151.807 494.007 151.574 493.781 151.341 493.328 151.108 493.102 150.875 492.876 150.642 492.65 150.642 492.423 150.409 491.971 150.409 491.745 150.176 491.518 150.176 491.292 150.176 491.066 150.409 491.066 150.409 490.839 150.409 490.839 150.642 490.613 150.875 490.613 150.875 490.613 151.108 490.387 151.341 490.387L152.274 490.387 152.74 490.387 152.74 484.956 149.01 484.956 149.01 483.372 164.162 483.372 164.162 484.956ZM169.057 490.839C168.591 490.839 168.358 490.839 168.125 490.387 167.892 490.161 167.659 489.934 167.659 489.482 167.659 489.255 167.892 489.029 168.125 488.803 168.358 488.35 168.591 488.35 169.057 488.35 169.291 488.35 169.524 488.35 169.757 488.803 170.223 489.029 170.223 489.255 170.223 489.482 170.223 489.934 170.223 490.161 169.757 490.387 169.524 490.839 169.291 490.839 169.057 490.839ZM169.057 500.343C168.591 500.343 168.358 500.343 168.125 500.117 167.892 499.891 167.659 499.438 167.659 499.212 167.659 498.759 167.892 498.533 168.125 498.307 168.358 498.08 168.591 497.854 169.057 497.854 169.291 497.854 169.524 498.08 169.757 498.307 170.223 498.533 170.223 498.759 170.223 499.212 170.223 499.438 170.223 499.891 169.757 500.117 169.524 500.343 169.291 500.343 169.057 500.343ZM201.459 484.956 189.105 484.956 189.105 489.482 189.105 489.482C189.571 488.803 190.037 488.577 190.736 488.124 191.203 487.898 191.902 487.672 192.601 487.672 193.068 487.672 193.534 487.898 194 488.124 194.466 488.35 194.932 488.577 195.399 489.029 195.632 489.255 196.098 489.708 196.098 490.387 196.331 490.839 196.564 491.518 196.564 491.971 196.564 492.65 196.331 493.328 196.098 494.007 195.865 494.46 195.632 495.139 195.166 495.591 194.699 496.044 194.233 496.496 193.767 496.723 193.301 497.175 192.834 497.401 192.368 497.854L191.436 496.044C191.436 495.818 191.669 495.818 191.902 495.591 192.135 495.591 192.368 495.365 192.601 495.139 192.834 494.912 193.068 494.686 193.301 494.46 193.534 494.234 193.767 494.007 194 493.781 194.233 493.555 194.233 493.328 194.466 492.876 194.466 492.65 194.699 492.197 194.699 491.971 194.699 491.745 194.466 491.292 194.466 491.066 194.233 490.839 194.233 490.387 194 490.161 193.767 489.934 193.534 489.708 193.301 489.708 193.068 489.482 192.834 489.482 192.601 489.482 192.135 489.482 191.669 489.708 191.436 489.708 190.97 489.934 190.736 490.161 190.27 490.613 190.037 490.839 189.804 491.292 189.571 491.518 189.338 491.971 189.105 492.197 189.105 492.65L189.105 500.117 187.24 500.117 187.24 495.818 187.24 495.818C187.007 495.818 187.007 496.044 186.774 496.044 186.541 496.27 186.307 496.496 186.074 496.496 185.841 496.723 185.608 496.723 185.142 496.949 184.909 496.949 184.443 496.949 183.976 496.949 183.51 496.949 182.811 496.949 182.111 496.723 181.645 496.27 181.179 496.044 180.713 495.591 180.247 495.139 180.014 494.686 179.78 494.007 179.547 493.555 179.314 492.876 179.314 492.197 179.314 491.518 179.547 490.839 179.78 490.387 180.014 489.708 180.247 489.255 180.713 488.803 180.946 488.577 181.412 488.124 181.878 487.898 182.345 487.672 183.044 487.672 183.51 487.672 183.976 487.672 184.443 487.672 184.676 487.898 185.142 487.898 185.375 488.124 185.608 488.124 186.074 488.35 186.307 488.577 186.541 488.577 186.774 488.803 187.007 489.029 187.24 489.029L187.24 489.029 187.24 484.956 177.682 484.956 177.682 483.372 201.459 483.372 201.459 484.956ZM183.976 489.482C183.51 489.482 183.044 489.482 182.811 489.708 182.345 489.934 182.111 490.161 181.878 490.387 181.645 490.613 181.412 491.066 181.412 491.292 181.179 491.745 181.179 491.971 181.179 492.423 181.179 492.65 181.179 493.102 181.412 493.328 181.645 493.781 181.645 494.007 181.878 494.46 182.111 494.686 182.578 494.912 182.811 495.139 183.277 495.139 183.51 495.365 183.976 495.365 184.209 495.365 184.676 495.139 185.142 495.139 185.375 494.912 185.841 494.686 186.074 494.46 186.541 494.234 186.774 493.781 187.007 493.328 187.24 492.876 187.24 492.423 187.24 491.745L187.24 491.292C187.007 491.066 186.774 490.839 186.541 490.387 186.307 490.161 186.074 490.161 185.608 489.934 185.375 489.708 185.142 489.708 184.909 489.482 184.443 489.482 184.209 489.482 183.976 489.482ZM219.642 484.956 214.98 484.956 214.98 500.117 213.115 500.117 213.115 493.781 206.821 493.781 206.821 495.139C206.821 495.365 206.821 495.591 206.821 495.818 206.821 496.044 206.821 496.044 206.588 496.27 206.588 496.27 206.588 496.496 206.355 496.496 206.355 496.496 206.122 496.496 205.889 496.496 205.655 496.496 205.422 496.496 205.189 496.496 204.956 496.27 204.723 496.044 204.49 496.044 204.257 495.818 203.791 495.591 203.557 495.365 203.324 494.912 203.324 494.686 203.091 494.46 202.858 494.234 202.625 494.007 202.625 493.781 202.392 493.328 202.392 493.102 202.392 492.876 202.392 492.876 202.392 492.65 202.392 492.65 202.625 492.423 202.625 492.423 202.625 492.423 202.858 492.197 202.858 492.197 203.091 492.197L203.557 492.197 204.956 492.197 204.956 484.956 201.459 484.956 201.459 483.372 219.642 483.372 219.642 484.956ZM206.821 484.956 206.821 492.197 213.115 492.197 213.115 484.956 206.821 484.956ZM217.311 478.168C216.845 477.942 216.611 477.715 216.145 477.489 215.912 477.263 215.679 477.263 215.213 477.263 214.747 477.263 214.047 477.489 213.814 477.715 213.348 478.168 213.348 478.847 213.348 479.526 213.348 479.752 213.348 479.978 213.348 480.431 213.348 480.657 213.581 481.109 213.581 481.336 213.814 481.788 214.047 482.015 214.047 482.467 214.28 482.693 214.514 483.146 214.747 483.372L212.882 483.372C212.416 482.693 212.182 482.015 211.949 481.336 211.716 480.657 211.483 479.978 211.483 479.299 211.483 478.847 211.716 478.168 211.716 477.715 211.949 477.263 212.182 476.81 212.649 476.584 212.882 476.131 213.348 475.905 213.814 475.679 214.28 475.679 214.747 475.453 215.213 475.453 215.912 475.453 216.378 475.679 217.078 475.905 217.544 476.131 218.01 476.584 218.476 477.036L217.311 478.168ZM237.125 483.372 237.125 484.956 234.794 484.956 234.794 500.117 232.696 500.117 232.696 492.65 226.169 492.65C225.703 492.876 225.236 493.102 224.77 493.102L224.77 493.102C225.47 494.234 226.169 495.365 227.101 496.27 228.034 497.175 228.966 498.307 230.132 498.985L228.966 500.343C228.267 499.891 227.568 499.438 227.101 498.985 226.402 498.307 225.936 497.854 225.47 497.175 224.77 496.496 224.304 496.044 223.838 495.365 223.372 494.686 222.905 494.234 222.672 493.555 222.206 493.102 221.973 492.423 221.507 491.971 221.274 491.292 221.041 490.839 220.807 490.387L222.439 489.482C222.672 489.934 222.672 490.161 222.905 490.387 222.905 490.613 223.139 490.839 223.372 490.839 223.372 491.066 223.605 491.066 223.838 491.292 224.071 491.292 224.071 491.292 224.304 491.292 224.77 491.292 225.236 491.066 225.47 490.613 225.703 490.161 225.936 489.708 225.936 489.029 225.936 488.577 225.936 488.35 225.703 487.898 225.703 487.445 225.47 487.219 225.47 486.766 225.236 486.54 225.236 486.088 225.003 485.861 225.003 485.635 224.77 485.182 224.77 484.956L219.642 484.956 219.642 483.372 237.125 483.372ZM232.696 484.956 226.635 484.956C227.101 485.635 227.334 486.314 227.334 486.993 227.568 487.672 227.801 488.35 227.801 489.029 227.801 489.482 227.801 489.708 227.568 489.934 227.568 490.387 227.568 490.613 227.334 490.839L227.334 491.066 232.696 491.066 232.696 484.956ZM230.598 500.569C231.064 500.117 231.53 499.891 232.23 499.891 232.696 499.664 233.395 499.664 233.861 499.664 234.328 499.664 234.794 499.664 235.26 499.664 235.726 499.891 235.959 500.117 236.426 500.343 236.659 500.569 236.892 500.796 237.125 501.248 237.125 501.701 237.358 501.927 237.358 502.38 237.358 502.832 237.125 503.285 236.892 503.737 236.892 504.19 236.426 504.642 236.193 504.869 235.726 505.095 235.26 505.547 234.561 505.547 234.095 505.774 233.395 506 232.696 506 231.764 506 230.831 505.774 230.365 505.547 229.666 505.321 228.966 505.095 228.5 504.642 227.801 504.416 227.334 503.964 226.868 503.511 226.635 503.058 226.169 502.832 225.936 502.38L226.868 501.248C227.334 501.701 227.801 501.927 228.267 502.38 228.5 502.832 228.966 503.058 229.432 503.285 229.899 503.511 230.365 503.737 230.831 503.964 231.297 504.19 231.997 504.19 232.463 504.19 232.929 504.19 233.628 504.19 233.861 503.964 234.328 503.964 234.561 503.737 234.794 503.737 235.027 503.511 235.26 503.285 235.26 503.058 235.493 502.832 235.493 502.606 235.493 502.38 235.493 502.153 235.493 501.701 235.027 501.474 234.794 501.248 234.328 501.248 233.861 501.248 233.628 501.248 233.162 501.248 232.696 501.474 232.23 501.474 231.764 501.701 231.297 501.927L230.598 500.569ZM264.166 484.956 254.375 484.956 254.375 489.482 254.375 489.482C254.841 488.803 255.307 488.577 256.007 488.124 256.473 487.898 257.172 487.672 257.872 487.672 258.338 487.672 259.037 487.898 259.503 488.124 259.97 488.35 260.203 488.577 260.669 489.029 260.902 489.255 261.135 489.708 261.368 490.387 261.601 490.839 261.834 491.518 261.834 491.971 261.834 492.65 261.601 493.328 261.368 494.007 261.135 494.46 260.902 495.139 260.436 495.591 259.97 496.044 259.503 496.496 259.037 496.723 258.571 497.175 258.105 497.401 257.639 497.854L256.706 496.044C256.939 495.818 256.939 495.818 257.172 495.591 257.405 495.591 257.639 495.365 257.872 495.139 258.105 494.912 258.338 494.686 258.571 494.46 258.804 494.234 259.037 494.007 259.27 493.781 259.503 493.555 259.503 493.328 259.736 492.876 259.736 492.65 259.97 492.197 259.97 491.971 259.97 491.745 259.736 491.292 259.736 491.066 259.736 490.839 259.503 490.387 259.27 490.161 259.037 489.934 258.804 489.708 258.571 489.708 258.338 489.482 258.105 489.482 257.872 489.482 257.405 489.482 256.939 489.708 256.706 489.708 256.24 489.934 256.007 490.161 255.541 490.613 255.307 490.839 255.074 491.292 254.841 491.518 254.608 491.971 254.608 492.197 254.375 492.65L254.375 500.117 252.51 500.117 252.51 495.818 252.51 495.818C252.277 495.818 252.277 496.044 252.044 496.044 251.811 496.27 251.578 496.496 251.345 496.496 251.111 496.723 250.878 496.723 250.412 496.949 250.179 496.949 249.713 496.949 249.48 496.949 248.78 496.949 248.081 496.949 247.615 496.723 246.916 496.27 246.449 496.044 245.983 495.591 245.517 495.139 245.284 494.686 245.051 494.007 244.818 493.555 244.584 492.876 244.584 492.197 244.584 491.518 244.818 490.839 245.051 490.387 245.284 489.708 245.517 489.255 245.983 488.803 246.216 488.577 246.682 488.124 247.149 487.898 247.848 487.672 248.314 487.672 249.014 487.672 249.247 487.672 249.713 487.672 249.946 487.898 250.412 487.898 250.645 488.124 251.111 488.124 251.345 488.35 251.578 488.577 251.811 488.577 252.044 488.803 252.277 489.029 252.51 489.029L252.51 489.029 252.51 484.956 242.953 484.956 242.953 483.372 264.166 483.372 264.166 484.956ZM249.247 489.482C248.78 489.482 248.314 489.482 248.081 489.708 247.615 489.934 247.382 490.161 247.149 490.387 246.916 490.613 246.682 491.066 246.682 491.292 246.682 491.745 246.449 491.971 246.449 492.423 246.449 492.65 246.682 493.102 246.682 493.328 246.916 493.781 246.916 494.007 247.382 494.46 247.615 494.686 247.848 494.912 248.081 495.139 248.547 495.139 248.78 495.365 249.247 495.365 249.713 495.365 249.946 495.139 250.412 495.139 250.645 494.912 251.111 494.686 251.345 494.46 251.811 494.234 252.044 493.781 252.277 493.328 252.51 492.876 252.51 492.423 252.51 491.745L252.51 491.292C252.277 491.066 252.277 490.839 251.811 490.387 251.578 490.161 251.345 490.161 251.111 489.934 250.645 489.708 250.412 489.708 250.179 489.482 249.713 489.482 249.48 489.482 249.247 489.482ZM272.791 484.956 267.895 484.956 267.895 500.117 266.03 500.117 266.03 484.956 264.166 484.956 264.166 483.372 272.791 483.372 272.791 484.956ZM267.895 483.372 266.264 483.372 265.797 482.92C265.331 482.467 264.865 482.015 264.399 481.562 263.932 481.336 263.466 481.109 263 480.883 262.767 480.431 262.534 480.431 262.068 480.204 261.834 480.204 261.601 479.978 261.368 479.978 261.135 479.978 260.902 479.752 260.669 479.752L259.97 479.752 257.639 479.752 257.639 478.168 259.736 478.168C260.203 478.168 260.436 478.168 260.669 478.394 260.902 478.394 261.368 478.394 261.601 478.62 261.834 478.62 262.068 478.847 262.301 478.847 262.767 479.073 263 479.299 263.233 479.526 263.699 479.752 263.932 479.978 264.399 480.431 264.632 480.657 265.098 481.109 265.564 481.562L265.797 481.562C265.331 480.883 264.865 480.204 264.632 479.752 264.166 479.073 263.932 478.62 263.699 478.394 263.233 477.942 263 477.715 262.767 477.489 262.534 477.263 262.301 477.036 262.068 477.036 261.834 476.81 261.601 476.81 261.368 476.584 261.135 476.584 260.902 476.584 260.669 476.584L258.338 476.584 258.338 475 260.436 475C260.902 475 261.368 475 261.834 475 262.068 475.226 262.534 475.226 262.767 475.453 263 475.679 263.466 476.131 263.699 476.358 263.932 476.81 264.399 477.263 264.865 477.942 265.098 478.394 265.564 479.073 266.03 479.978 266.497 480.657 266.963 481.788 267.662 482.92L267.895 483.372ZM280.017 491.066C280.017 491.066 279.784 491.292 279.784 491.292L279.318 491.292C278.618 491.292 278.152 491.066 277.686 490.839 277.22 490.613 276.753 490.387 276.287 489.934 276.054 489.482 275.588 489.255 275.588 488.577 275.355 488.124 275.122 487.672 275.122 487.219 275.122 486.766 275.355 486.314 275.355 486.088 275.588 485.635 275.588 485.409 275.821 484.956L275.821 484.956 272.791 484.956 272.791 483.372 293.77 483.372 293.77 484.956 289.108 484.956 289.108 500.117 287.243 500.117 287.243 484.956 282.814 484.956 282.814 484.956C283.047 485.182 283.28 485.409 283.514 485.861 283.514 486.088 283.747 486.314 283.747 486.54 283.98 486.993 283.98 487.219 284.213 487.672 284.213 487.898 284.213 488.35 284.213 488.803 284.213 489.255 284.213 489.934 283.98 490.387 283.747 491.066 283.514 491.518 283.047 491.971 282.814 492.423 282.348 492.876 281.882 493.328 281.416 493.781 280.949 494.234 280.25 494.46L280.25 494.46C280.716 494.686 281.182 495.139 281.649 495.591 281.882 496.044 282.348 496.27 282.814 496.723 283.28 497.175 283.747 497.854 283.98 498.307 284.446 498.533 284.679 498.985 285.145 499.438L283.747 500.343C283.514 500.117 283.28 499.891 282.814 499.438 282.581 498.985 282.115 498.533 281.649 498.08 281.182 497.628 280.716 497.175 280.25 496.723 279.551 496.044 279.084 495.818 278.618 495.365 278.152 495.591 277.919 495.591 277.686 495.591 277.453 495.818 276.986 495.818 276.753 495.818 276.52 495.818 276.054 495.591 275.821 495.591 275.355 495.591 275.122 495.365 274.889 495.365 274.655 495.139 274.422 494.912 274.422 494.686 274.189 494.46 274.189 494.234 274.189 494.007 274.189 493.328 274.189 493.102 274.655 492.876 274.889 492.65 275.355 492.423 276.054 492.423 276.52 492.423 276.986 492.423 277.22 492.65 277.686 492.876 278.152 493.102 278.618 493.328 278.851 493.328 279.084 493.102 279.318 493.102 279.551 492.876 279.784 492.876 280.017 492.65 280.483 492.423 280.716 492.197 280.949 491.971 281.182 491.745 281.416 491.518 281.649 491.066 281.882 490.839 282.115 490.387 282.115 489.934 282.348 489.482 282.348 489.255 282.348 488.803 282.348 488.35 282.348 487.898 282.115 487.445 282.115 486.993 281.882 486.54 281.649 486.314 281.416 485.861 280.949 485.635 280.716 485.409 280.25 485.182 279.784 485.182 279.318 485.182 278.851 485.182 278.385 485.182 278.152 485.409 277.919 485.409 277.686 485.635 277.453 485.861 277.453 486.088 277.22 486.088 277.22 486.314 277.22 486.766 276.986 486.993 276.986 487.219 276.986 487.445 277.22 487.672 277.22 487.898 277.453 488.35 277.453 488.577 277.686 488.803 277.919 489.029 278.152 489.029 278.618 489.255 278.851 489.482 279.084 489.482 279.551 489.482 279.784 489.482 279.784 489.482 280.017 489.482L280.017 491.066ZM313.584 484.956 308.689 484.956 308.689 500.117 306.824 500.117 306.824 489.482C306.358 489.482 305.892 489.255 305.659 489.255 305.193 489.255 304.959 489.482 304.726 489.482 304.493 489.708 304.26 489.934 304.027 490.161 303.794 490.387 303.794 490.613 303.561 490.839 303.561 491.292 303.561 491.518 303.561 491.745L303.561 492.197 303.561 492.65 301.696 492.65C301.696 492.197 301.696 491.745 301.463 491.292 301.463 491.066 301.23 490.613 301.23 490.161 300.997 489.934 300.763 489.708 300.53 489.482 300.297 489.255 300.064 489.255 299.598 489.255 299.365 489.255 298.899 489.255 298.666 489.482 298.432 489.708 298.199 489.708 297.966 490.161 297.966 490.387 297.733 490.613 297.733 491.066 297.5 491.292 297.5 491.745 297.5 492.197 297.5 492.876 297.733 493.781 297.966 494.46 298.199 495.139 298.666 495.591 299.132 496.27 299.831 496.723 300.297 497.175 300.997 497.628 301.696 498.08 302.395 498.533 303.095 498.985L302.162 500.343C301.929 500.343 301.696 500.117 301.23 499.891 300.763 499.664 300.297 499.438 299.831 498.985 299.132 498.759 298.666 498.307 298.199 497.854 297.733 497.175 297.267 496.723 297.034 496.044 296.568 495.591 296.334 494.912 295.868 494.234 295.635 493.555 295.635 492.876 295.635 491.971 295.635 491.292 295.635 490.839 295.868 490.161 296.101 489.482 296.334 489.029 296.568 488.803 297.034 488.35 297.5 488.124 297.966 487.898 298.432 487.672 298.899 487.445 299.598 487.445 300.064 487.445 300.53 487.445 300.763 487.672 300.997 487.672 301.463 487.898 301.696 488.124 301.929 488.35 301.929 488.577 302.162 488.577 302.395 488.803 302.395 489.029 302.628 489.255L302.628 489.255C302.861 489.029 302.861 488.577 303.095 488.577 303.328 488.35 303.561 488.124 303.794 487.898 304.027 487.898 304.26 487.672 304.493 487.672 304.959 487.672 305.193 487.445 305.426 487.445 305.659 487.445 305.892 487.672 306.125 487.672 306.358 487.672 306.591 487.672 306.824 487.898L306.824 484.956 293.77 484.956 293.77 483.372 313.584 483.372 313.584 484.956ZM329.669 484.956 327.338 484.956 327.338 500.117 325.473 500.117 325.473 493.781 318.946 493.781 318.946 495.139 318.946 495.818C318.946 496.044 318.946 496.044 318.946 496.27 318.713 496.27 318.713 496.496 318.713 496.496 318.48 496.496 318.247 496.496 318.013 496.496 317.78 496.496 317.547 496.496 317.314 496.496 317.081 496.27 316.848 496.044 316.615 496.044 316.382 495.818 316.149 495.591 315.916 495.365 315.682 494.912 315.449 494.686 315.216 494.46 314.983 494.234 314.983 494.007 314.75 493.781 314.75 493.328 314.517 493.102 314.517 492.876 314.517 492.876 314.75 492.65 314.75 492.65 314.75 492.423 314.75 492.423 314.983 492.423 314.983 492.197 315.216 492.197 315.449 492.197L315.916 492.197 317.081 492.197 317.081 484.956 313.584 484.956 313.584 483.372 329.669 483.372 329.669 484.956ZM318.946 484.956 318.946 492.197 325.473 492.197 325.473 484.956 318.946 484.956ZM330.834 505.547 326.172 501.474 325.473 500.117 327.338 500.117 332 504.416 330.834 505.547Z" fill="#FFFFFF" fill-rule="evenodd"/><path d="M395 343.381 395 245.551 429.867 245.551C464.733 245.551 482.167 261.278 482.167 293.194 482.167 308.458 477.518 320.716 467.755 329.736 458.225 338.755 445.673 343.381 429.867 343.381L395 343.381ZM417.082 263.359 417.082 325.573 428.007 325.573C437.77 325.573 445.208 322.566 450.787 316.784 456.133 311.002 458.922 303.37 458.922 293.425 458.922 283.943 456.133 276.773 450.787 271.454 445.44 266.134 437.77 263.359 428.007 263.359L417.082 263.359ZM554.689 343.381 534.234 343.381 534.234 333.205 534.002 333.205C529.12 341.068 522.38 345 513.082 345 506.108 345 500.995 343.15 497.043 339.218 493.092 335.518 491 330.43 491 323.954 491 310.308 499.135 302.445 515.406 300.363L534.234 297.819C534.234 290.187 530.283 286.487 521.915 286.487 513.547 286.487 505.644 288.8 497.973 293.888L497.973 277.467C500.995 276.079 505.179 274.692 510.525 273.535 515.639 272.148 520.52 271.685 524.704 271.685 544.694 271.685 554.689 281.63 554.689 301.52L554.689 343.381ZM534.234 314.934 534.234 310.308 521.682 311.927C514.476 312.621 510.99 315.859 510.99 321.41 510.99 323.954 511.92 325.804 513.779 327.192 515.406 329.042 517.498 329.736 520.752 329.736 524.704 329.736 527.958 328.348 530.515 325.573 533.072 322.797 534.234 319.097 534.234 314.934ZM617.682 292.963C615.125 291.575 612.103 290.65 608.616 290.65 603.968 290.65 600.248 292.5 597.459 295.738 594.902 299.207 593.508 303.833 593.508 309.846L593.508 343.381 571.89 343.381 571.89 273.535 593.508 273.535 593.508 286.487 593.972 286.487C597.227 277.004 603.503 272.148 612.336 272.148 614.66 272.148 616.287 272.379 617.682 273.073L617.682 292.963ZM623.958 341.531 623.958 323.954C627.677 326.035 631.164 327.654 634.65 328.811 638.369 329.736 641.624 330.43 644.878 330.43 648.597 330.43 651.619 329.736 653.711 328.811 656.035 327.654 656.965 326.035 656.965 323.954 656.965 322.566 656.732 321.41 655.57 320.716 654.64 319.559 653.478 318.866 651.851 318.172 650.224 317.478 648.597 317.015 646.737 316.322 644.645 315.628 643.018 315.165 641.159 314.471 638.369 313.546 635.812 312.159 633.953 311.002 631.861 309.846 630.001 308.689 628.607 307.07 626.98 305.452 625.817 303.601 625.352 301.289 624.423 299.207 623.958 296.894 623.958 294.119 623.958 290.187 624.888 286.718 626.747 283.943 628.374 280.936 630.466 278.855 633.488 277.004 636.277 275.154 639.532 273.998 643.251 273.073 646.97 272.148 650.689 271.685 654.873 271.685 657.895 271.685 660.916 272.148 664.171 272.379 667.425 272.841 670.447 273.767 673.701 274.46L673.701 291.112C670.911 289.493 668.122 288.337 664.868 287.412 661.846 286.949 658.824 286.487 655.57 286.487 654.176 286.487 652.781 286.487 651.619 286.718 650.456 287.181 649.294 287.181 648.364 287.874 647.202 288.337 646.737 288.8 646.04 289.725 645.343 290.65 645.343 291.344 645.343 292.269 645.343 293.656 645.575 294.581 646.505 295.507 647.202 296.432 648.364 297.357 649.759 297.819 650.921 298.513 652.548 298.976 653.943 299.67 655.57 300.363 657.197 300.595 658.824 301.289 661.846 302.445 664.403 303.37 666.728 304.526 669.052 305.683 671.144 307.302 672.771 308.689 674.398 310.308 675.56 312.159 676.723 314.24 677.42 316.553 677.885 318.866 677.885 322.104 677.885 326.035 677.188 329.504 675.328 332.511 673.468 335.518 670.911 337.83 668.122 339.681 665.1 341.531 661.614 342.919 657.662 343.844 653.711 344.537 649.759 345 645.343 345 637.672 345 630.466 343.844 623.958 341.531ZM757.846 343.381 736.228 343.381 736.228 303.601C736.228 293.425 732.277 288.337 725.071 288.337 721.12 288.337 718.098 289.725 715.541 292.5 713.216 295.507 711.822 298.976 711.822 303.601L711.822 343.381 690.437 343.381 690.437 240 711.822 240 711.822 283.943 712.287 283.943C717.633 275.617 724.839 271.685 733.904 271.685 749.943 271.685 757.846 281.167 757.846 300.363L757.846 343.381ZM833.158 343.381 812.703 343.381 812.703 333.205 812.47 333.205C807.821 341.068 800.848 345 791.55 345 784.809 345 779.463 343.15 775.512 339.218 771.792 335.518 769.7 330.43 769.7 323.954 769.7 310.308 777.836 302.445 793.875 300.363L812.935 297.819C812.935 290.187 808.751 286.487 800.383 286.487 792.015 286.487 784.112 288.8 776.674 293.888L776.674 277.467C779.696 276.079 783.647 274.692 788.993 273.535 794.107 272.148 798.988 271.685 803.172 271.685 823.163 271.685 833.158 281.63 833.158 301.52L833.158 343.381ZM812.935 314.934 812.935 310.308 800.151 311.927C793.177 312.621 789.691 315.859 789.691 321.41 789.691 323.954 790.388 325.804 792.015 327.192 793.875 329.042 796.199 329.736 799.221 329.736 803.172 329.736 806.427 328.348 808.984 325.573 811.54 322.797 812.935 319.097 812.935 314.934ZM918 343.381 896.383 343.381 896.383 304.526C896.383 293.656 892.664 288.337 884.76 288.337 881.274 288.337 878.02 289.725 875.695 292.5 873.138 295.507 871.976 298.976 871.976 303.601L871.976 343.381 850.359 343.381 850.359 273.535 871.976 273.535 871.976 284.405 872.208 284.405C877.555 275.848 884.76 271.685 894.755 271.685 910.329 271.685 918 281.399 918 300.595L918 343.381Z" fill="#FFFFFF" fill-rule="evenodd"/><path d="M440.792 410.587C440.792 428.272 432.888 437 417.315 437 402.438 437 395 428.502 395 411.735L395 373.148 401.044 373.148 401.044 411.046C401.044 417.936 402.438 423.219 405.228 426.664 408.017 429.88 412.201 431.717 418.244 431.717 429.402 431.717 434.98 425.057 434.98 411.735L434.98 373.148 440.792 373.148 440.792 410.587ZM506.806 435.852 471.707 385.551C471.242 384.862 470.777 384.173 470.312 383.484 469.847 382.795 469.615 382.336 469.382 381.647L469.15 381.647C469.15 382.106 469.15 382.795 469.15 383.714 469.15 384.633 469.382 385.781 469.382 387.389L469.382 435.852 463.339 435.852 463.339 373.148 469.847 373.148 504.481 422.989C505.179 423.678 505.644 424.367 505.876 425.057 506.341 425.746 506.806 426.435 507.038 426.894L507.271 426.894C507.271 425.975 507.271 425.057 507.038 423.678 507.038 422.53 507.038 421.152 507.038 419.774L507.038 373.148 513.082 373.148 513.082 435.852 506.806 435.852ZM542.37 435.852 536.326 435.852 536.326 373.148 542.37 373.148 542.37 435.852ZM587.696 435.852 581.885 435.852 558.873 373.148 565.382 373.148 583.28 423.219C583.745 424.138 583.977 425.057 584.21 426.205 584.442 427.124 584.675 428.042 584.907 428.961L584.907 428.961C585.14 428.272 585.372 427.353 585.604 426.435 585.837 425.286 586.302 424.367 586.767 423.219L605.362 373.148 611.871 373.148 587.696 435.852ZM628.374 435.852 628.374 373.148 659.289 373.148 659.289 378.431 634.185 378.431 634.185 401.399 657.43 401.399 657.43 406.682 634.185 406.682 634.185 430.569 660.684 430.569 660.684 435.852 628.374 435.852ZM715.308 435.852 705.778 417.936C704.848 416.099 703.919 414.721 703.221 413.343 702.292 412.194 701.362 411.276 700.432 410.587 699.502 409.898 698.34 409.208 697.41 408.979 696.248 408.749 695.086 408.519 693.691 408.519L686.718 408.519 686.718 435.852 680.907 435.852 680.907 373.148 699.037 373.148C701.594 373.148 703.919 373.378 706.011 374.297 708.335 374.986 710.195 375.905 712.054 377.283 713.681 378.661 715.076 380.498 716.238 382.565 717.168 384.633 717.865 386.929 717.865 389.686 717.865 391.982 717.4 393.82 716.703 395.887 716.006 397.724 715.076 399.332 713.914 400.71 712.519 402.088 711.124 403.466 709.265 404.385 707.405 405.534 705.546 406.223 703.221 406.682L703.221 406.912C704.151 407.141 704.848 407.601 705.546 408.29 706.243 408.749 706.94 409.438 707.638 410.127 708.335 411.046 709.032 411.965 709.73 412.883 710.195 414.032 710.892 415.18 711.589 416.329L722.282 435.852 715.308 435.852ZM686.718 378.431 686.718 403.237 697.178 403.237C699.502 403.237 701.362 403.007 703.221 402.318 704.848 401.629 706.476 400.94 707.638 399.792 708.8 398.643 709.962 397.265 710.66 395.657 711.357 394.049 711.589 392.212 711.589 390.145 711.589 386.47 710.427 383.714 708.103 381.647 705.778 379.579 702.292 378.431 697.875 378.431L686.718 378.431ZM737.623 426.664C738.785 427.583 739.948 428.272 741.11 428.731 742.504 429.421 743.899 429.88 745.061 430.339 746.456 430.799 747.851 431.028 749.245 431.258 750.64 431.488 751.802 431.717 752.964 431.717 757.846 431.717 761.565 430.799 763.889 428.961 766.214 427.124 767.376 424.367 767.376 420.922 767.376 419.314 767.144 417.936 766.679 416.558 765.981 415.41 765.052 414.261 763.889 413.113 762.727 412.194 761.332 411.046 759.473 409.898 757.613 408.979 755.521 407.601 753.197 406.452 750.408 404.845 748.083 403.466 746.224 402.318 744.132 400.94 742.737 399.562 741.342 398.184 740.18 396.806 739.25 395.428 738.785 393.82 738.088 392.212 737.856 390.375 737.856 388.537 737.856 386.011 738.32 383.714 739.483 381.647 740.645 379.579 742.04 377.972 743.899 376.364 745.759 374.986 747.851 374.067 750.408 373.148 752.964 372.459 755.521 372 758.543 372 763.424 372 767.608 372.689 770.863 374.067L770.863 380.498C767.144 378.431 762.727 377.283 757.846 377.283 755.986 377.283 754.127 377.512 752.5 377.972 750.872 378.431 749.245 379.12 748.083 380.039 746.921 380.958 745.759 382.106 745.061 383.254 744.364 384.633 744.132 386.011 744.132 387.848 744.132 389.456 744.364 390.834 744.829 391.982 745.294 393.131 745.991 394.279 747.153 395.428 748.083 396.576 749.478 397.495 751.337 398.643 753.197 399.562 755.289 400.71 757.846 402.088 760.403 403.466 762.727 404.845 764.819 406.223 766.679 407.601 768.306 408.979 769.7 410.357 771.095 411.735 772.025 413.343 772.722 414.951 773.187 416.558 773.652 418.396 773.652 420.463 773.652 423.219 773.187 425.516 772.025 427.583 771.095 429.65 769.468 431.488 767.608 432.866 765.749 434.244 763.657 435.163 761.1 435.852 758.543 436.541 755.754 437 752.732 437 751.57 437 750.408 437 749.013 436.77 747.618 436.541 746.224 436.311 744.829 436.081 743.434 435.622 742.04 435.392 740.877 434.933 739.483 434.474 738.553 434.014 737.623 433.555L737.623 426.664ZM799.686 435.852 793.642 435.852 793.642 373.148 799.686 373.148 799.686 435.852ZM841.293 378.431 841.293 435.852 835.25 435.852 835.25 378.431 817.119 378.431 817.119 373.148 859.656 373.148 859.656 378.431 841.293 378.431ZM897.312 412.424 897.312 435.852 891.501 435.852 891.501 412.424 871.511 373.148 878.252 373.148 892.664 402.548C892.896 402.777 893.128 403.237 893.593 403.926 893.826 404.845 894.058 405.534 894.523 406.682L894.755 406.682C894.755 406.223 894.988 405.534 895.453 404.845 895.685 404.155 896.15 403.466 896.615 402.548L911.724 373.148 918 373.148 897.312 412.424Z" fill="#FFFFFF" fill-rule="evenodd"/></g></svg>